<svg id="Layer_1" data-name="Layer 1" xmlns="http://www.w3.org/2000/svg" viewBox="0 0 702.53 184.97"><defs><style>.cls-1{fill:#93278f;}.cls-2{fill:#2e3192;}</style></defs><title>logo_no_gradient</title><path class="cls-1" d="M158.76,128V57.22a7.9,7.9,0,1,0-8.06-13.37L89.42,8.59a8.76,8.76,0,0,0,.12-1.16,7.92,7.92,0,0,0-15.84,0,7.51,7.51,0,0,0,.16,1.51L13.62,43.6a7.89,7.89,0,1,0-8.5,12.61v71.52a7.89,7.89,0,1,0,7.58,13.54l22.8,13.12a1.79,1.79,0,0,0,.75.52,1.52,1.52,0,0,0,.21,0L74,176.55v0a7.92,7.92,0,0,0,15.83,0v0L151,141.39a7.82,7.82,0,0,0,5.11,1.91A7.9,7.9,0,0,0,158.76,128Zm-4.42-.3-18-31a5.11,5.11,0,0,0-.79-6.6l18.77-32.4a5.61,5.61,0,0,0,.59.06v69.84C154.75,127.61,154.54,127.63,154.34,127.67ZM85.25,169.4a7.7,7.7,0,0,0-6.63,0L57.85,133.54a5.87,5.87,0,0,0,.26-8c7.1-10.12,15.07-21.44,22.07-31.36a5.88,5.88,0,0,0,2.61.63,6.06,6.06,0,0,0,1.66-.26l20.41,25.29a9.93,9.93,0,0,0,.66,14.56ZM53.63,123.47a5.72,5.72,0,0,0-1.5.21L37.61,98.61a7.82,7.82,0,0,0,0-11.8l8.49-14.65L77,88a5.5,5.5,0,0,0-.09.91,5.8,5.8,0,0,0,.6,2.55q-13.43,19-22.63,32.13A6.06,6.06,0,0,0,53.63,123.47ZM8.92,127.38V56.66L26.65,87.27a7.85,7.85,0,0,0,0,10.87l-17,29.38C9.39,127.46,9.16,127.42,8.92,127.38Zm3.46-72.32.15-.13L42.7,70.42,34.23,85a7.58,7.58,0,0,0-1.86-.24,7.68,7.68,0,0,0-2.5.44Zm2.67-3.57H53.67L44.61,67.12,14.91,51.88C15,51.76,15,51.62,15.05,51.49ZM79.23,14.94a7.42,7.42,0,0,0,5.31-.17l15,25.85a9.55,9.55,0,0,0-3.22,7.07H63a5.1,5.1,0,0,0-1.28-2.57ZM148,51.49c0,.16.1.31.15.48l-29,15-7-12.07a9.49,9.49,0,0,0,2.52-3.42Zm-50.94,0a9.43,9.43,0,0,0,11.84,5.32l6.91,11.92L86.2,84.07a5.87,5.87,0,0,0-7.49.56L48,68.86l8.84-15.25a5.29,5.29,0,0,0,1.13.14,5.16,5.16,0,0,0,4.27-2.26Zm15,65.36a9.92,9.92,0,0,0-4,.85L87.57,92.38a5.68,5.68,0,0,0,.87-5.19L117.71,72l10.61,18.32a5.15,5.15,0,0,0-1.38,3.5,5.06,5.06,0,0,0,.66,2.47l-12.26,21.16A9.75,9.75,0,0,0,112,116.85Zm9.09-46.58,28.89-15a8.76,8.76,0,0,0,.9.82L132,88.69a2,2,0,0,0-.24,0Zm27.33-23.34a6.1,6.1,0,0,0-.23.76H115.46a9.48,9.48,0,0,0-12.66-9L87.63,12.52c.11-.13.22-.25.32-.39ZM75.49,12.38A7,7,0,0,0,76,13L58.31,43.47c-.12,0-.23,0-.35,0a5.14,5.14,0,0,0-5.06,4.25H15.46a5.52,5.52,0,0,0-.11-.71ZM36.27,150.44,15,138.21a7.84,7.84,0,0,0-2-8.9l16.87-29.13a7.86,7.86,0,0,0,2.52.45,7.67,7.67,0,0,0,1.87-.25L49,125.78a5.86,5.86,0,0,0-1.26,3.61,5.93,5.93,0,0,0,.9,3.12C42.27,141.58,38.14,147.59,36.27,150.44Zm3.26,1.88c1.88-2.82,6.36-9.28,12-17.39a5.86,5.86,0,0,0,2.07.39,7.4,7.4,0,0,0,.81-.08l21.19,36.59a8,8,0,0,0-.59.92Zm49.3,20.43a8,8,0,0,0-.59-.92l20.58-35.53a9.68,9.68,0,0,0,8.5-1l11.61,14.38ZM120.1,132.7a9.88,9.88,0,0,0-1.49-13.3l12-20.66a5,5,0,0,0,1.51.25,4.91,4.91,0,0,0,1.16-.14L151,129.4a7.78,7.78,0,0,0-2.23,8.9l-16.46,9.47Z" transform="translate(0.27 0.48)"/><path class="cls-2" d="M256.55,52.58,221.22,90.64l38.28,40.1v.91H241L207.7,96.43v35.22h-15V52.13h15V85.75l30.21-33.62h18.64Z" transform="translate(0.27 0.48)"/><path class="cls-2" d="M319.36,52h15v79.64H325v.11L283.23,78v53.62h-15V52.13h12.15l39,49.3Z" transform="translate(0.27 0.48)"/><path class="cls-2" d="M427.38,92.34c-.22,20.56-12.83,41.13-40.78,41.13s-40.9-20.11-40.9-41,13.41-41.93,40.9-41.93S427.61,71.55,427.38,92.34Zm-66.91.34c.34,13.07,7.39,27,26.13,27s25.79-14.09,26-27.15c.22-13.41-7.27-28.4-26-28.4S360.13,79.28,360.47,92.68Z" transform="translate(0.27 0.48)"/><path class="cls-2" d="M477.92,132H462.36L429.3,52.13h16.82l24,61.91,24.08-61.91H511Z" transform="translate(0.27 0.48)"/><path class="cls-2" d="M520.29,131.65V52.13h14.88v79.52Z" transform="translate(0.27 0.48)"/><path class="cls-2" d="M573.45,65.76H548.23V52.13h65.44V65.76H588.45v65.89h-15Z" transform="translate(0.27 0.48)"/><path class="cls-2" d="M679.2,116.65H637.63l-6.82,15H614.56l35.68-79.52h16.35l35.68,79.52H685.91ZM658.42,68.83l-14.77,33.85h29.53Z" transform="translate(0.27 0.48)"/></svg>