<svg id="Layer_1" data-name="Layer 1" xmlns="http://www.w3.org/2000/svg" viewBox="0 0 219.94 41.75"><defs><style>.cls-1{fill:#ec008c;}.cls-2{fill:#000f9f;}</style></defs><title>v</title><path class="cls-1" d="M112.75,11.75a17.2,17.2,0,0,1,7.43,1.65l-1.64,3.27c-.33-.16-8.12-3.92-14.26,2.22-2.66,2.66-3.64,5.52-4.67,8.55-1.12,3.29-2.29,6.68-5.53,9.93-6.43,6.43-14.91,4.71-18.5,2.91L77.22,37c.32.16,8.12,3.92,14.26-2.22,2.64-2.64,3.62-5.5,4.66-8.53,1.13-3.29,2.29-6.7,5.55-10A15.28,15.28,0,0,1,112.75,11.75Z" transform="translate(-0.03 -0.21)"/><path class="cls-2" d="M171.58,11.74a12.68,12.68,0,0,0-10.68,5.75c-1.33,2.28-1.83,4.93-1.83,9V41.39h3.73V26.85c0-3.86.44-5.69,1.52-7.52a8.52,8.52,0,0,1,7.36-4,8.31,8.31,0,0,1,7.21,4c1.07,1.83,1.52,3.67,1.52,7.52V41.39h3.73V26.47c0-4-.51-6.7-1.83-9A12.74,12.74,0,0,0,171.58,11.74ZM13.81,35.44,4,12.37H0L10.9,38.22c1.2,3,1.45,3.73,2.78,3.73s1.64-.76,2.84-3.54l10.94-26h-4ZM56.09,17.93A14.74,14.74,0,0,0,44,11.74,15.11,15.11,0,1,0,43.89,42a14.58,14.58,0,0,0,12-5.88l-3-2.21A10.84,10.84,0,0,1,44,38.29a11.09,11.09,0,0,1-11-9.86H59C59.06,24.38,58.56,21.41,56.09,17.93ZM33,25.08a11.05,11.05,0,0,1,21.93,0ZM216.18.21V17.49a13.41,13.41,0,0,0-11.38-5.75,14.87,14.87,0,0,0-14.92,15.11,15.05,15.05,0,0,0,27.94,7.84c1.71-2.91,2.15-5.25,2.15-10.24V.21ZM204.87,38.29a11.43,11.43,0,0,1-11.19-11.44,11.28,11.28,0,0,1,11.25-11.44c6.32,0,11.19,5.12,11.19,11.63A11.4,11.4,0,0,1,204.87,38.29ZM66.59,17.49c-1.33,2.28-1.83,4.93-1.83,9V41.39h3.73V26.85c0-3.86.44-5.69,1.52-7.52a8.43,8.43,0,0,1,7.21-4,8.53,8.53,0,0,1,3.63.74l1.52-3.25a13.06,13.06,0,0,0-5.09-1A12.62,12.62,0,0,0,66.59,17.49Zm83.81.44a14.74,14.74,0,0,0-12.07-6.19A15.11,15.11,0,1,0,138.2,42a14.58,14.58,0,0,0,12-5.88l-3-2.21a10.84,10.84,0,0,1-8.91,4.43,11.09,11.09,0,0,1-11-9.86h26C153.37,24.38,152.86,21.41,150.4,17.93Zm-23.07,7.14a11.05,11.05,0,0,1,21.93,0Zm-23,9.73a15,15,0,0,1-1.8-2.18l-1.83,3.64c.32.38.67.75,1,1.13A15.28,15.28,0,0,0,112.75,42a17.2,17.2,0,0,0,7.43-1.65L118.54,37C118.21,37.19,110.42,40.95,104.28,34.81Z" transform="translate(-0.03 -0.21)"/></svg>